<?xml version="1.0" encoding="UTF-8"?>
<svg xmlns="http://www.w3.org/2000/svg" width="175" height="105" viewBox="0 0 175 105" fill="none">
  <mask id="mask0_2896_141" style="mask-type:alpha" maskUnits="userSpaceOnUse" x="30" y="37" width="32" height="31">
    <path d="M45.8653 67.6049C54.2456 67.6049 61.0392 60.8646 61.0392 52.55C61.0392 44.2354 54.2456 37.4951 45.8653 37.4951C37.485 37.4951 30.6914 44.2354 30.6914 52.55C30.6914 60.8646 37.485 67.6049 45.8653 67.6049Z" fill="white"></path>
  </mask>
  <g mask="url(#mask0_2896_141)">
    <path d="M45.8653 67.6049C54.2456 67.6049 61.0392 60.8646 61.0392 52.55C61.0392 44.2354 54.2456 37.4951 45.8653 37.4951C37.485 37.4951 30.6914 44.2354 30.6914 52.55C30.6914 60.8646 37.485 67.6049 45.8653 67.6049Z" fill="#166BFF"></path>
    <g filter="url(#filter0_f_2896_141)">
      <path fill-rule="evenodd" clip-rule="evenodd" d="M20.0703 55.5612L35.6777 40.0762L51.2852 55.5612L35.6777 71.0463L20.0703 55.5612Z" fill="#003399" fill-opacity="0.65"></path>
    </g>
  </g>
  <path fill-rule="evenodd" clip-rule="evenodd" d="M15.082 52.5504L30.6894 37.0654L46.2969 52.5504L30.6894 68.0355L15.082 52.5504Z" fill="#166BFF"></path>
  <path fill-rule="evenodd" clip-rule="evenodd" d="M35.2782 41.7969L46.2989 52.5506L35.2782 63.3043C32.4487 60.5775 30.6914 56.7671 30.6914 52.5506C30.6914 48.3342 32.4487 44.5237 35.2782 41.7969Z" fill="white"></path>
  <path d="M73.7578 61.29V43.4727H77.8047V57.4806H86.7763V61.29H73.7578ZM101.648 54.3704C101.648 54.9009 101.599 55.4313 101.526 55.9617H91.7009C92.1154 57.4083 93.2612 58.445 95.3334 58.445C96.7718 58.445 98.4296 57.8905 99.5023 57.1672L101.014 59.747C99.7217 60.7114 97.6494 61.5793 95.1628 61.5793C90.165 61.5793 87.849 58.2522 87.849 54.6598C87.849 50.7298 90.6526 47.7402 94.8946 47.7402C98.7221 47.7402 101.648 50.1753 101.648 54.3704ZM94.8946 50.8021C93.3343 50.8021 92.1154 51.7183 91.6765 53.2614H97.9664C97.6251 51.7665 96.5036 50.8021 94.8946 50.8021ZM113.935 48.0777H117.543V61.29H113.935V59.9399C112.96 60.9043 111.643 61.6276 109.815 61.6276C105.963 61.6276 103.232 58.5415 103.232 54.6115C103.232 50.6575 106.036 47.7402 109.815 47.7402C111.619 47.7402 112.96 48.4876 113.935 49.4761V48.0777ZM110.473 58.1798C112.497 58.1798 113.935 56.5645 113.935 54.6598C113.935 52.7792 112.497 51.1879 110.473 51.1879C108.45 51.1879 107.06 52.7792 107.06 54.6598C107.06 56.5886 108.474 58.1798 110.473 58.1798ZM120.493 61.29V48.0777H124.223V49.9101C124.881 48.7287 126.417 47.7161 128.441 47.7161C131.098 47.7161 133.633 49.4761 133.633 53.2131V61.29H129.806V54.2017C129.806 52.2487 128.757 51.1879 127.197 51.1879C125.491 51.1879 124.32 52.4416 124.32 54.2981V61.29H120.493ZM136.827 43.4727H140.874V61.29H136.827V43.4727ZM142.849 61.29L148.529 52.297L143.263 43.4727H147.92L151.138 49.2832L154.551 43.4727H159.256L153.673 52.297L159.207 61.29H154.551L151.089 55.3107L147.554 61.29H142.849Z" fill="#222F4B"></path>
  <defs>
    <filter id="filter0_f_2896_141" x="1.87683" y="21.8827" width="67.6018" height="67.3567" color-interpolation-filters="sRGB">
      <feFlood flood-opacity="0" result="BackgroundImageFix"></feFlood>
      <feBlend mode="normal" in="SourceGraphic" in2="BackgroundImageFix" result="shape"></feBlend>
      <feGaussianBlur stdDeviation="9.09674" result="effect1_foregroundBlur_2896_141"></feGaussianBlur>
    </filter>
  </defs>
</svg>
