<?xml version="1.0" encoding="UTF-8"?>
<svg xmlns="http://www.w3.org/2000/svg" width="212" height="105" viewBox="0 0 212 105" fill="none">
  <path d="M135.945 49.1589C137.044 49.2121 138.476 48.827 138.476 50.4639C138.476 52.0994 137.044 51.7143 135.945 51.7674V49.1589ZM135.945 56.8539V53.2999H137.393C139.45 53.2372 140.587 52.1364 140.587 50.4639C140.587 48.1246 138.86 47.6398 136.813 47.627H133.965V56.8539H135.945Z" fill="#231F20"></path>
  <path d="M144.517 53.364L145.875 49.4262H145.898L147.162 53.364H144.517ZM143.318 56.8539L144.005 54.8969H147.661L148.325 56.8539H150.32L147.115 47.627H144.761L141.426 56.8539H143.318Z" fill="#231F20"></path>
  <path d="M153.557 49.1589H155.216C156.084 49.1723 156.595 49.5179 156.595 50.3357C156.595 51.1534 156.084 51.587 155.216 51.6003H153.557V49.1589ZM153.557 53.1328H155.65C156.303 53.1593 156.432 53.8632 156.481 54.3741C156.568 55.2052 156.661 56.0348 156.828 56.8539H159.011C158.641 56.3415 158.564 55.255 158.476 54.6676C158.31 53.3892 158.31 52.457 156.787 52.2913V52.2632C157.927 52.021 158.707 51.2303 158.707 50.0303C158.707 48.1512 157.083 47.6398 155.497 47.627H151.574V56.8539H153.557V53.1328Z" fill="#231F20"></path>
  <path d="M159.816 47.627H167.29V49.1589H164.545V56.8539H162.561V49.1589H159.816V47.627Z" fill="#231F20"></path>
  <path d="M174.141 56.8539L170.499 49.1841L170.472 49.2121V56.8539H168.621V47.627H171.563L175.075 54.8851L175.102 54.8599V47.627H176.952V56.8539H174.141Z" fill="#231F20"></path>
  <path d="M178.781 47.627H184.965V49.1589H180.761V51.3181H184.7V52.8526H180.761V55.3201H185.107V56.8539H178.781V47.627Z" fill="#231F20"></path>
  <path d="M188.914 49.1589H190.574C191.444 49.1723 191.956 49.5179 191.956 50.3357C191.956 51.1534 191.444 51.587 190.574 51.6003H188.914V49.1589ZM188.914 53.1328H191.008C191.661 53.1593 191.791 53.8632 191.841 54.3741C191.929 55.2052 192.018 56.0348 192.186 56.8539H194.37C194.001 56.3415 193.926 55.255 193.833 54.6676C193.668 53.3892 193.668 52.457 192.148 52.2913V52.2632C193.284 52.021 194.064 51.2303 194.064 50.0303C194.064 48.1512 192.44 47.6398 190.857 47.627H186.934V56.8539H188.914V53.1328Z" fill="#231F20"></path>
  <path d="M125.376 64.8467H17.6406V40.2539H125.376V64.8467Z" fill="#ED192D"></path>
  <path d="M64.9825 54.3595H71.2966L67.9662 48.9981L61.846 58.6995L59.0579 58.7004L66.505 47.0425C66.8299 46.5819 67.367 46.2822 67.9662 46.2822C68.5446 46.2822 69.0807 46.5671 69.3923 47.0306L76.8684 58.7004L74.0698 58.6995L72.7706 56.5297H66.3782L64.9825 54.3595ZM93.9148 56.5335V46.4062H91.5542V57.5298C91.5542 57.8299 91.671 58.1253 91.9012 58.3462C92.1339 58.5707 92.4383 58.6995 92.7646 58.6995H103.536L104.938 56.5335H93.9148ZM54.8201 54.7228C57.1242 54.7228 58.9782 52.8555 58.9782 50.567C58.9782 48.2753 57.1242 46.4062 54.8201 46.4062H44.4842V58.6995H46.8449V48.582H54.6634C55.7593 48.582 56.6489 49.4663 56.6489 50.567C56.6489 51.6669 55.7593 52.5483 54.6634 52.5483H48.005L55.0546 58.6995H58.4956L53.7469 54.7228H54.8201ZM29.9419 58.6995C26.5498 58.6995 23.7969 55.946 23.7969 52.5483C23.7969 49.1624 26.5498 46.4062 29.9419 46.4062H37.0846C40.4796 46.4062 43.222 49.1624 43.222 52.5483C43.222 55.946 40.4796 58.7004 37.0846 58.7004L29.9419 58.6995ZM36.9137 56.5335C39.1129 56.5335 40.9022 54.7522 40.9022 52.5483C40.9022 50.3652 39.1129 48.582 36.9137 48.582H30.1015C27.9051 48.582 26.1177 50.3652 26.1177 52.5483C26.1177 54.7522 27.9051 56.5335 30.1015 56.5335H36.9137ZM81.7943 58.6995C78.399 58.6995 75.655 55.946 75.655 52.5483C75.655 49.1624 78.399 46.4062 81.7943 46.4062H90.2819L88.8914 48.582H81.9511C79.7576 48.582 77.9739 50.3652 77.9739 52.5483C77.9739 54.7522 79.7576 56.5335 81.9511 56.5335H90.478L89.0805 58.6995H81.7943ZM110.699 56.5335C108.878 56.5335 107.35 55.3117 106.87 53.6391H116.981L118.371 51.475H106.867C107.343 49.801 108.875 48.582 110.699 48.582H117.641L119.03 46.4062H110.537C107.145 46.4062 104.399 49.1624 104.399 52.5483C104.399 55.946 107.145 58.6995 110.537 58.6995H117.831L119.213 56.5335H110.699Z" fill="white"></path>
  <path d="M120.289 47.7167C120.289 47.1278 120.776 46.6311 121.379 46.6311C121.978 46.6311 122.468 47.1278 122.468 47.7167C122.468 48.3312 121.978 48.8123 121.379 48.8123C120.776 48.8123 120.289 48.3312 120.289 47.7167ZM121.379 49.1043C122.135 49.1043 122.763 48.486 122.763 47.7242C122.763 46.9597 122.135 46.3438 121.379 46.3438C120.611 46.3438 120 46.9597 120 47.7242C120 48.486 120.611 49.1043 121.379 49.1043ZM121.249 46.9065C121.473 46.9065 121.55 46.9065 121.647 46.9479C121.928 47.0423 121.955 47.2887 121.955 47.3762C121.955 47.398 121.949 47.4526 121.937 47.5039C121.928 47.5675 121.883 47.6873 121.751 47.7717C121.732 47.7817 121.724 47.7922 121.68 47.8116L122.036 48.4489H121.689L121.379 47.8587H121.154V48.4489H120.864V46.9065H121.249ZM121.358 47.6073C121.449 47.6073 121.55 47.597 121.616 47.5039C121.633 47.4678 121.647 47.4293 121.647 47.3703C121.647 47.2886 121.604 47.2167 121.535 47.19C121.473 47.1577 121.397 47.1576 121.249 47.1576H121.154V47.6073H121.358Z" fill="white"></path>
</svg>
