<?xml version="1.0" encoding="UTF-8"?>
<svg xmlns="http://www.w3.org/2000/svg" width="169" height="105" viewBox="0 0 169 105" fill="none">
  <path fill-rule="evenodd" clip-rule="evenodd" d="M49.9577 29.377C52.6882 26.5347 56.4884 24.7745 60.6866 24.7745C66.2843 24.7745 71.1356 27.8843 73.7478 32.518C76.0666 31.4814 78.5782 30.9462 81.1181 30.9475C91.1939 30.9475 99.3727 39.1885 99.3727 49.3576C99.3727 59.5267 91.1939 67.7677 81.1181 67.7677C79.8866 67.7677 78.6862 67.6439 77.5107 67.4101C75.225 71.4839 70.8557 74.2517 65.88 74.2517C63.8542 74.2557 61.8544 73.7961 60.0335 72.9082C57.7167 78.3504 52.3212 82.1755 46.0394 82.1755C39.4777 82.1755 33.9111 78.0394 31.7653 72.2241C30.8103 72.4256 29.8368 72.5269 28.8608 72.5263C21.0551 72.5263 14.7422 66.1201 14.7422 58.2523C14.7422 52.9656 17.5846 48.3631 21.8015 45.8752C20.9069 43.8144 20.4464 41.5913 20.4487 39.3446C20.4487 30.264 27.819 22.9248 36.8996 22.9248C42.2174 22.9248 46.9754 25.4593 49.9609 29.3932" fill="#00A1E0"></path>
  <path fill-rule="evenodd" clip-rule="evenodd" d="M27.07 53.6331C27.0168 53.7718 27.0889 53.8008 27.106 53.8254C27.2649 53.9404 27.4263 54.0238 27.5881 54.1174C28.4526 54.5745 29.2674 54.7082 30.1194 54.7082C31.8547 54.7082 32.9338 53.7845 32.9338 52.2981V52.2688C32.9338 50.8943 31.7148 50.3936 30.5766 50.036L30.4276 49.9879C29.5662 49.7086 28.823 49.4653 28.823 48.8993V48.8704C28.823 48.3853 29.2583 48.0277 29.9301 48.0277C30.6764 48.0277 31.5658 48.2761 32.1349 48.5905C32.1349 48.5905 32.3035 48.6995 32.3647 48.5368C32.398 48.4488 32.6882 47.6723 32.7192 47.5852C32.7522 47.4941 32.6944 47.4254 32.635 47.3899C31.9819 46.9919 31.0801 46.7212 30.1471 46.7212L29.9739 46.7219C28.3848 46.7219 27.2746 47.6829 27.2746 49.0574V49.0869C27.2746 50.536 28.4999 51.0087 29.6443 51.3354L29.8284 51.3926C30.6618 51.6488 31.3833 51.8715 31.3833 52.4561V52.4854C31.3833 53.0234 30.9137 53.4244 30.1611 53.4244C29.8685 53.4244 28.9358 53.4196 27.9252 52.7808C27.8029 52.7096 27.7333 52.6583 27.6391 52.6007C27.5893 52.5706 27.4649 52.5162 27.4108 52.6791L27.0687 53.6306L27.07 53.6331ZM52.4759 53.6306C52.4227 53.7693 52.4949 53.7982 52.5126 53.8228C52.6709 53.9379 52.8329 54.0212 52.9946 54.1148C53.8591 54.5719 54.6739 54.7057 55.526 54.7057C57.2613 54.7057 58.3404 53.7822 58.3404 52.2957V52.2663C58.3404 50.8918 57.1244 50.3912 55.9831 50.0336L55.8342 49.9854C54.9728 49.7061 54.2295 49.4628 54.2295 48.8969V48.868C54.2295 48.3829 54.6649 48.0252 55.3366 48.0252C56.083 48.0252 56.9693 48.2737 57.5415 48.5881C57.5415 48.5881 57.71 48.6969 57.7716 48.5342C57.8046 48.4462 58.095 47.6697 58.123 47.5826C58.1563 47.4915 58.0981 47.4228 58.039 47.3873C57.386 46.9893 56.4841 46.7188 55.5512 46.7188L55.3777 46.7194C53.7885 46.7194 52.6783 47.6804 52.6783 49.0549V49.0844C52.6783 50.5335 53.9036 51.0063 55.048 51.3329L55.2318 51.39C56.0683 51.6462 56.7867 51.8689 56.7867 52.4535V52.4828C56.7867 53.0208 56.3171 53.422 55.5646 53.422C55.2713 53.422 54.3362 53.4171 53.3286 52.7783C53.2064 52.7071 53.1349 52.658 53.0422 52.5983C53.0108 52.5783 52.8643 52.521 52.8142 52.6765L52.4722 53.6282L52.4759 53.6306ZM69.8249 50.7174C69.8249 51.557 69.6682 52.2194 69.3616 52.689C69.0556 53.1523 68.5934 53.3793 67.9497 53.3793C67.306 53.3793 66.8457 53.1543 66.5441 52.6922C66.2402 52.2257 66.0869 51.5602 66.0869 50.7205C66.0869 49.8809 66.2412 49.2216 66.5441 48.7583C66.8451 48.298 67.3029 48.0771 67.9497 48.0771C68.5965 48.0771 69.0568 48.3002 69.3616 48.7583C69.6701 49.2216 69.8249 49.8809 69.8249 50.7205V50.7174ZM71.2741 49.1624C71.1314 48.6804 70.9102 48.2575 70.6148 47.903C70.3191 47.5484 69.9462 47.2623 69.5015 47.0571C69.0599 46.8503 68.5375 46.7462 67.9466 46.7462C67.3557 46.7462 66.8364 46.8509 66.3917 47.0571C65.9501 47.2636 65.5738 47.5484 65.2784 47.903C64.9836 48.2575 64.7621 48.6804 64.6191 49.1624C64.4776 49.6413 64.4058 50.1639 64.4058 50.7205C64.4058 51.2772 64.4776 51.7996 64.6191 52.2785C64.7612 52.7605 64.9829 53.1834 65.2784 53.5379C65.5741 53.8925 65.9501 54.1755 66.3917 54.3777C66.8364 54.5792 67.3588 54.6818 67.9466 54.6818C68.5343 54.6818 69.0568 54.5792 69.4984 54.3777C69.94 54.1762 70.3163 53.8925 70.6117 53.5379C70.9068 53.1834 71.1279 52.7605 71.271 52.2785C71.4122 51.7996 71.484 51.2772 71.484 50.7205C71.484 50.167 71.4122 49.6413 71.271 49.1624H71.2741ZM83.1816 53.1431C83.134 53.0022 82.9965 53.0554 82.9965 53.0554C82.786 53.1359 82.5612 53.2105 82.3217 53.2478C82.0804 53.2857 81.8117 53.3047 81.5287 53.3047C80.829 53.3047 80.2692 53.0961 79.8712 52.6828C79.47 52.2692 79.2461 51.6037 79.2492 50.7019C79.2514 49.8809 79.4498 49.2652 79.8059 48.7924C80.1573 48.3259 80.6984 48.0834 81.4136 48.0834C82.0107 48.0834 82.4679 48.1528 82.9468 48.3027C82.9468 48.3027 83.0603 48.352 83.1147 48.2024C83.2419 47.851 83.3358 47.5992 83.4723 47.2136C83.5109 47.1032 83.4164 47.0565 83.3818 47.0431C83.194 46.9697 82.7505 46.8493 82.4147 46.7987C82.1006 46.7508 81.7367 46.7259 81.3263 46.7259C80.7167 46.7259 80.1756 46.8302 79.7123 47.0367C79.2489 47.2428 78.8571 47.528 78.5461 47.8825C78.2351 48.237 77.9988 48.6599 77.8402 49.1419C77.6831 49.6208 77.6038 50.1464 77.6038 50.703C77.6038 51.9034 77.9272 52.8769 78.5678 53.589C79.2085 54.3043 80.1725 54.665 81.4289 54.665C82.1721 54.665 82.934 54.5148 83.4814 54.298C83.4814 54.298 83.5858 54.2477 83.5404 54.1258L83.1828 53.1431H83.1816ZM85.7173 49.9089C85.7867 49.4424 85.9145 49.0536 86.1154 48.7519C86.4161 48.2917 86.8742 48.0398 87.5179 48.0398C88.1616 48.0398 88.5877 48.2929 88.8924 48.7519C89.0946 49.0551 89.1829 49.458 89.2159 49.9089L85.7018 49.9082L85.7173 49.9089ZM90.5997 48.8825C90.4763 48.4192 90.1706 47.9497 89.9715 47.7351C89.6543 47.3962 89.3465 47.1567 89.0386 47.0261C88.5941 46.8371 88.1159 46.74 87.633 46.7408C87.0203 46.7408 86.4637 46.8445 86.0127 47.055C85.5618 47.2671 85.1824 47.5557 84.8839 47.9164C84.5856 48.2772 84.3614 48.7031 84.2184 49.1913C84.0753 49.6734 84.0032 50.202 84.0032 50.7556C84.0032 51.3216 84.0781 51.8471 84.2255 52.3229C84.3745 52.8018 84.6143 53.2217 84.9377 53.57C85.2611 53.9214 85.6747 54.1951 86.1723 54.3879C86.6667 54.5792 87.2669 54.6784 87.9542 54.6762C89.3723 54.6716 90.1186 54.3558 90.4234 54.1848C90.4778 54.1543 90.5291 54.1018 90.4651 53.9504L90.1448 53.0517C90.0956 52.9176 89.96 52.966 89.96 52.966C89.6086 53.0973 89.111 53.333 87.9449 53.3299C87.183 53.3286 86.6201 53.1038 86.2656 52.7515C85.9048 52.3907 85.7245 51.8653 85.6965 51.1189L90.61 51.1226C90.61 51.1226 90.7393 51.1213 90.7527 50.995C90.758 50.9428 90.921 49.9875 90.6062 48.8835L90.5997 48.8825ZM46.4404 49.9089C46.5097 49.4424 46.6378 49.0536 46.8384 48.7519C47.1395 48.2917 47.5972 48.0398 48.2409 48.0398C48.8847 48.0398 49.3107 48.2929 49.6155 48.7519C49.8173 49.0551 49.9056 49.458 49.9389 49.9089L46.4248 49.9082L46.4404 49.9089ZM51.3228 48.8825C51.1996 48.4192 50.8936 47.9497 50.6946 47.7351C50.3774 47.3962 50.0695 47.1567 49.7616 47.0261C49.3172 46.8371 48.839 46.74 48.356 46.7408C47.7434 46.7408 47.1867 46.8445 46.7358 47.055C46.2849 47.2671 45.9055 47.5557 45.6069 47.9164C45.3093 48.2772 45.0845 48.7031 44.9414 49.1913C44.7987 49.6734 44.7269 50.202 44.7269 50.7556C44.7269 51.3216 44.8012 51.8471 44.9495 52.3229C45.0982 52.8018 45.3382 53.2217 45.6586 53.57C45.982 53.9214 46.3956 54.1951 46.8932 54.3879C47.3876 54.5792 47.9847 54.6784 48.6751 54.6762C50.0932 54.6716 50.8395 54.3558 51.1443 54.1848C51.1984 54.1543 51.25 54.1018 51.1856 53.9504L50.8653 53.0517C50.8159 52.9176 50.6803 52.966 50.6803 52.966C50.3289 53.0973 49.8313 53.333 48.6651 53.3299C47.9063 53.3286 47.3403 53.1038 46.9858 52.7515C46.6251 52.3907 46.4447 51.8653 46.4167 51.1189L51.3302 51.1226C51.3302 51.1226 51.4596 51.1213 51.473 50.995C51.4783 50.9428 51.6412 49.9875 51.3262 48.8835L51.3228 48.8825ZM35.8359 53.1119C35.6434 52.9583 35.6167 52.9207 35.5529 52.8209C35.4556 52.6707 35.4058 52.457 35.4058 52.1833C35.4058 51.7541 35.5489 51.4432 35.8443 51.2348C35.8412 51.2354 36.2672 50.8679 37.2686 50.8803C37.7143 50.8883 38.159 50.9263 38.5996 50.9939V53.2235C38.5996 53.2235 37.9783 53.3576 37.2754 53.3999C36.2772 53.4599 35.8356 53.1125 35.8387 53.1134L35.8359 53.1119ZM37.7889 49.66C37.5898 49.6454 37.3317 49.6382 37.0239 49.6382C36.604 49.6382 36.1966 49.6905 35.8172 49.7931C35.4347 49.8963 35.0895 50.0563 34.7941 50.269C34.4979 50.4803 34.2542 50.7569 34.082 51.0775C33.9081 51.4009 33.8195 51.7803 33.8195 52.2094C33.8195 52.6448 33.8951 53.0211 34.0443 53.329C34.1906 53.6343 34.4108 53.8984 34.685 54.0971C34.9577 54.2955 35.2945 54.4424 35.6832 54.5294C36.0688 54.6175 36.5042 54.6618 36.9831 54.6618C37.4869 54.6618 37.9876 54.6196 38.4727 54.5378C38.8859 54.4666 39.2975 54.3864 39.7073 54.2977C39.8709 54.26 40.0525 54.2107 40.0525 54.2107C40.1738 54.1799 40.1645 54.0501 40.1645 54.0501L40.1617 49.572C40.1617 48.5893 39.8992 47.8585 39.3811 47.4076C38.8649 46.9566 38.1092 46.7296 37.1296 46.7296C36.7626 46.7296 36.1687 46.7795 35.8141 46.8507C35.8141 46.8507 34.7444 47.0583 34.3028 47.4041C34.3028 47.4041 34.2057 47.4639 34.2586 47.5992L34.6069 48.5322C34.6501 48.6531 34.768 48.6118 34.768 48.6118C34.768 48.6118 34.805 48.5972 34.8485 48.5714C35.7908 48.0582 36.985 48.0737 36.985 48.0737C37.5136 48.0737 37.9241 48.181 38.1978 48.3909C38.4656 48.5964 38.6021 48.9071 38.6021 49.5602V49.7677C38.1823 49.7067 37.7935 49.6716 37.7935 49.6716L37.7889 49.66ZM77.2835 47.1317C77.2906 47.1153 77.2943 47.0977 77.2944 47.0798C77.2945 47.0619 77.291 47.0444 77.2841 47.0279C77.2772 47.0114 77.2671 46.9965 77.2543 46.984C77.2416 46.9715 77.2264 46.9617 77.2098 46.9552C77.1261 46.9235 76.7091 46.8355 76.3888 46.8156C75.7731 46.777 75.431 46.8808 75.1231 47.0188C74.819 47.156 74.4825 47.3765 74.2959 47.6315L74.2953 47.0345C74.2953 46.9524 74.2371 46.8861 74.1544 46.8861H72.898C72.8166 46.8861 72.7575 46.9524 72.7575 47.0345V54.3424C72.7576 54.3819 72.7733 54.4198 72.8012 54.4478C72.8291 54.4757 72.867 54.4914 72.9064 54.4915H74.1939C74.2333 54.4914 74.2712 54.4757 74.299 54.4478C74.3269 54.4198 74.3425 54.3819 74.3425 54.3424V50.673C74.3425 50.1816 74.3967 49.6933 74.5046 49.3854C74.6109 49.081 74.7555 48.8381 74.9337 48.6639C75.1037 48.4957 75.3117 48.3709 75.5401 48.3001C75.7545 48.2386 75.9764 48.2075 76.1994 48.2075C76.456 48.2075 76.7374 48.2733 76.7374 48.2733C76.832 48.2839 76.8845 48.2261 76.9165 48.1409C77.0008 47.9166 77.24 47.2452 77.2866 47.1115" fill="#FFFFFE"></path>
  <path fill-rule="evenodd" clip-rule="evenodd" d="M65.2562 43.7597C65.097 43.7116 64.9351 43.6732 64.7713 43.6447C64.551 43.6079 64.3279 43.5906 64.1046 43.593C63.2174 43.593 62.518 43.8437 62.0269 44.3388C61.5393 44.8301 61.2075 45.5786 61.0411 46.5635L60.9811 46.896H59.8675C59.8675 46.896 59.7316 46.8904 59.703 47.0387L59.5201 48.0587C59.5074 48.1564 59.5493 48.2173 59.68 48.2167H60.764L59.6641 54.3564C59.578 54.8509 59.4794 55.2576 59.3702 55.5658C59.2626 55.87 59.1575 56.0979 59.0281 56.2633C58.9028 56.4235 58.784 56.5414 58.5791 56.6101C58.4099 56.667 58.2152 56.6931 58.0019 56.6931C57.8831 56.6931 57.7251 56.6732 57.6085 56.6499C57.4919 56.6269 57.4312 56.6008 57.3439 56.5641C57.3439 56.5641 57.2167 56.5155 57.1666 56.6431C57.1259 56.7472 56.837 57.5418 56.8028 57.6401C56.7679 57.7371 56.8168 57.8136 56.8783 57.8357C57.0226 57.8873 57.1299 57.9203 57.3264 57.9666C57.5995 58.031 57.8296 58.035 58.0451 58.035C58.4967 58.035 58.9081 57.9716 59.2492 57.8484C59.5926 57.7243 59.8914 57.5082 60.1558 57.2156C60.4416 56.8999 60.6213 56.5693 60.7933 56.1184C60.9634 55.6715 61.1083 55.1168 61.2243 54.4702L62.3295 48.2167H63.9454C63.9454 48.2167 64.0816 48.2217 64.1099 48.074L64.2927 47.0539C64.3055 46.9563 64.2638 46.8953 64.1326 46.896H62.5643C62.5721 46.8605 62.6433 46.3088 62.8234 45.7895C62.9002 45.5678 63.0448 45.3889 63.1673 45.2661C63.2817 45.1491 63.4226 45.0614 63.5781 45.0105C63.7485 44.9578 63.9262 44.9322 64.1046 44.9346C64.2523 44.9346 64.3972 44.9523 64.5076 44.9753C64.6597 45.0077 64.7188 45.0248 64.7586 45.0366C64.9184 45.0854 64.9399 45.0382 64.9713 44.9607L65.3463 43.9308C65.3849 43.82 65.291 43.7734 65.2562 43.7597ZM43.3401 54.3695C43.3401 54.4516 43.2816 54.5184 43.1995 54.5184H41.8987C41.8163 54.5184 41.7578 54.4516 41.7578 54.3695V43.8993C41.7578 43.8176 41.8163 43.7513 41.8987 43.7513H43.1995C43.2816 43.7513 43.3401 43.8176 43.3401 43.8993V54.3695Z" fill="#FFFFFE"></path>
  <path d="M109.193 46.5596C107.94 46.5596 106.888 47.107 106.269 48.1154V46.6172H105.289V56.9891H106.312V52.7683C106.946 53.7479 107.983 54.2665 109.193 54.2665C111.354 54.2665 112.967 52.7107 112.967 50.4059C112.967 48.1154 111.354 46.5596 109.193 46.5596ZM109.121 53.359C107.507 53.359 106.297 52.1777 106.297 50.4059C106.297 48.6484 107.507 47.4528 109.121 47.4528C110.72 47.4528 111.944 48.6484 111.944 50.4059C111.944 52.1777 110.72 53.359 109.121 53.359Z" fill="#6C777D"></path>
  <path d="M117.636 46.5596C116.44 46.5596 115.317 46.9342 114.553 47.5824L115.014 48.3459C115.634 47.7985 116.556 47.4528 117.535 47.4528C118.947 47.4528 119.682 48.1586 119.682 49.4551V49.9161H117.276C115.101 49.9161 114.352 50.8956 114.352 52.0625C114.352 53.3734 115.403 54.2665 117.117 54.2665C118.371 54.2665 119.264 53.7911 119.725 53.0132V54.1945H120.704V49.4983C120.704 47.5392 119.595 46.5596 117.636 46.5596ZM117.276 53.4598C116.066 53.4598 115.36 52.9124 115.36 52.0337C115.36 51.2558 115.835 50.6796 117.305 50.6796H119.682V51.9184C119.278 52.9124 118.428 53.4598 117.276 53.4598Z" fill="#6C777D"></path>
  <path d="M123.851 48.1605V46.6767H122.871V54.2539H123.894V50.3933C123.894 48.607 124.859 47.5987 126.444 47.5987C126.516 47.5987 126.602 47.6131 126.689 47.6131V46.6191C125.291 46.6191 124.326 47.1521 123.851 48.1605Z" fill="#6C777D"></path>
  <path d="M132.597 52.9982C132.308 53.2575 131.891 53.3872 131.473 53.3872C130.623 53.3872 130.162 52.8974 130.162 52.0043V47.481H132.467V46.6166H130.162V44.96H129.139V46.6166H127.785V47.481H129.139V52.0619C129.139 53.4592 129.932 54.2659 131.358 54.2659C131.948 54.2659 132.553 54.093 132.957 53.7329L132.597 52.9982Z" fill="#6C777D"></path>
  <path d="M137.704 46.5596C136.393 46.5596 135.371 47.0926 134.823 48.0146V46.6172H133.844V54.1945H134.866V50.2186C134.866 48.4899 135.889 47.4816 137.517 47.4816C138.957 47.4816 139.793 48.3027 139.793 49.9017V54.1945H140.816V49.8008C140.816 47.6256 139.548 46.5596 137.704 46.5596Z" fill="#6C777D"></path>
  <path d="M149.184 50.4059C149.184 48.1298 147.643 46.5596 145.511 46.5596C143.379 46.5596 141.809 48.1586 141.809 50.4059C141.809 52.6531 143.422 54.2665 145.785 54.2665C146.98 54.2665 148.032 53.8343 148.709 53.0276L148.133 52.365C147.557 53.0276 146.735 53.359 145.813 53.359C144.157 53.359 142.947 52.3074 142.832 50.7228H149.17C149.17 50.6075 149.184 50.4923 149.184 50.4059ZM145.511 47.4384C146.995 47.4384 148.075 48.4755 148.205 49.9593H142.832C142.961 48.4755 144.042 47.4384 145.511 47.4384Z" fill="#6C777D"></path>
  <path d="M151.91 48.101V46.6172H150.93V54.1945H151.953V50.3338C151.953 48.5476 152.918 47.5392 154.503 47.5392C154.575 47.5392 154.661 47.5536 154.748 47.5536V46.5596C153.351 46.5596 152.385 47.0926 151.91 48.101Z" fill="#6C777D"></path>
</svg>
