<?xml version="1.0" encoding="UTF-8"?>
<svg xmlns="http://www.w3.org/2000/svg" width="196" height="105" viewBox="0 0 196 105" fill="none">
  <path d="M148.721 55.5908H138.316V58.4033H148.721V55.5908Z" fill="#0FAAFF"></path>
  <path d="M145.669 49.3555H138.316V52.168H145.669V49.3555Z" fill="#0FAAFF"></path>
  <path d="M148.721 43.1201H138.316V45.9326H148.721V43.1201Z" fill="#0FAAFF"></path>
  <path d="M11.7188 54.8279L14.2641 53.3072C14.6449 54.1027 15.2419 54.7751 15.9866 55.2476C16.7102 55.6992 17.5481 55.9338 18.4011 55.9235C19.0695 55.9493 19.7331 55.7989 20.3251 55.4874C20.5617 55.3594 20.7573 55.1672 20.8895 54.9328C21.0216 54.6985 21.0848 54.4316 21.0718 54.1629C21.0774 53.8875 21.006 53.6159 20.8654 53.379C20.7247 53.142 20.5206 52.9491 20.2761 52.8221C19.5474 52.4301 18.7703 52.1351 17.965 51.9446L15.9483 51.3341C15.315 51.1477 14.71 50.8764 14.1496 50.5274C13.6293 50.1989 13.1897 49.7573 12.8633 49.2356C12.515 48.6322 12.345 47.9424 12.3728 47.2462C12.3607 46.5862 12.4986 45.932 12.7761 45.333C13.0421 44.7765 13.4274 44.2852 13.9044 43.8941C14.421 43.4856 15.0113 43.1803 15.6432 42.9948C16.3857 42.7825 17.1548 42.6779 17.927 42.6841C18.6437 42.6765 19.3583 42.7626 20.0527 42.9403C20.6415 43.1004 21.2088 43.3309 21.7423 43.627C22.2198 43.9011 22.658 44.2384 23.045 44.6299C23.4036 44.9939 23.7283 45.3898 24.0152 45.8127L21.6768 47.595C21.2747 46.9366 20.7121 46.3908 20.0417 46.0089C19.3925 45.6207 18.6505 45.4155 17.8942 45.4148C17.3168 45.3775 16.7431 45.5286 16.2591 45.8454C16.0824 45.9754 15.9404 46.1467 15.8454 46.3444C15.7503 46.542 15.7052 46.76 15.714 46.9791C15.7005 47.257 15.766 47.533 15.903 47.7751C16.04 48.0173 16.2428 48.2156 16.4879 48.3472C17.2248 48.7241 18.0019 49.0167 18.8044 49.2193L20.8102 49.8407C21.4424 50.0332 22.0442 50.314 22.598 50.6746C23.1171 51.0074 23.5549 51.4526 23.879 51.9773C24.2245 52.5679 24.3945 53.2447 24.3694 53.9286C24.3688 54.5377 24.2445 55.1403 24.0042 55.7C23.7569 56.2683 23.3843 56.7732 22.9142 57.1771C22.354 57.641 21.7074 57.9892 21.0119 58.2018C20.1184 58.4743 19.1878 58.6049 18.254 58.5888C17.4925 58.5957 16.7336 58.5004 15.9974 58.3054C15.357 58.132 14.7442 57.8697 14.1769 57.5259C13.6488 57.2081 13.1743 56.8089 12.7706 56.3432C12.3616 55.8812 12.0085 55.3726 11.7188 54.8279Z" fill="#231F20"></path>
  <path d="M25.1797 58.2997L30.5975 42.8965H33.8133L39.2366 58.2888H35.8191L34.6854 54.8877H29.4638L28.281 58.2997H25.1797ZM30.2923 52.4349H33.8951L32.1346 47.2133H32.0964L30.2923 52.4349Z" fill="#231F20"></path>
  <path d="M41.2695 58.3002V42.9678H46.84C47.6271 42.9676 48.4129 43.0333 49.1892 43.164C49.8933 43.2797 50.5675 43.5334 51.1732 43.9107C51.7575 44.2827 52.2362 44.7989 52.5631 45.4096C52.9358 46.1736 53.1119 47.0185 53.0754 47.8678C53.1146 48.7507 52.927 49.6289 52.5304 50.4187C52.188 51.0494 51.6862 51.5794 51.0751 51.9557C50.4569 52.3327 49.7724 52.588 49.0583 52.7079C48.3083 52.8431 47.5476 52.9106 46.7855 52.9096H44.6052V58.3002H41.2695ZM44.6325 50.2388H46.9435C47.99 50.2388 48.7313 50.048 49.1674 49.661C49.394 49.4403 49.57 49.1729 49.6829 48.8773C49.7958 48.5818 49.8431 48.2652 49.8214 47.9496C49.8403 47.6417 49.7926 47.3333 49.6816 47.0455C49.5706 46.7577 49.399 46.4972 49.1783 46.2817C48.7477 45.8947 48.0064 45.6985 46.9435 45.6985H44.6325V50.2388Z" fill="#231F20"></path>
  <path d="M61.0273 58.3002V42.9678H66.5978C67.3849 42.9676 68.1707 43.0333 68.947 43.164C69.6562 43.2795 70.3358 43.5332 70.9473 43.9107C71.5312 44.2815 72.0084 44.7981 72.3318 45.4096C72.7147 46.1711 72.902 47.0159 72.8768 47.8678C72.9108 48.7502 72.7234 49.6272 72.3318 50.4187C71.9894 51.0494 71.4876 51.5794 70.8765 51.9557C70.245 52.3377 69.5452 52.5931 68.8161 52.7079C68.0661 52.8431 67.3054 52.9106 66.5433 52.9096H64.363V58.3002H61.0273ZM64.363 50.2388H66.6741C67.7206 50.2388 68.4619 50.048 68.8979 49.661C69.1246 49.4403 69.3005 49.1729 69.4134 48.8773C69.5264 48.5818 69.5737 48.2652 69.552 47.9496C69.5708 47.6417 69.5232 47.3333 69.4122 47.0455C69.3012 46.7577 69.1295 46.4972 68.9088 46.2817C68.4782 45.8947 67.7369 45.6985 66.6741 45.6985H64.363V50.2388Z" fill="#231F20"></path>
  <path d="M73.5473 55.4765C73.5374 54.876 73.6878 54.2837 73.9829 53.7607C74.2779 53.2376 74.707 52.8026 75.2261 52.5005C76.3489 51.7737 78.1221 51.3159 80.5458 51.1269V50.8653C80.5629 50.5104 80.4418 50.1626 80.2079 49.8951C80.0519 49.7579 79.8692 49.6545 79.6712 49.5917C79.4732 49.5288 79.2643 49.5078 79.0578 49.5299C78.3866 49.5251 77.7213 49.6549 77.1011 49.9114C76.5134 50.1662 75.9633 50.5 75.4659 50.9034L74.0651 48.9848C74.3658 48.727 74.6826 48.4886 75.0135 48.2708C75.3907 48.0246 75.7903 47.8147 76.2072 47.644C76.6911 47.4466 77.1931 47.2969 77.7061 47.1971C78.3244 47.0826 78.9523 47.0278 79.5811 47.0336C81.0963 47.0336 82.1864 47.3969 82.8514 48.1237C83.576 49.0386 83.9318 50.1917 83.8488 51.3558V55.6018C83.8425 56.1478 83.8662 56.6936 83.9197 57.237C83.9476 57.5993 84.0284 57.9555 84.1595 58.2944H80.8456C80.7747 58.0491 80.7148 57.7984 80.6657 57.5477C80.6131 57.26 80.5875 56.968 80.5894 56.6756C80.1212 57.2242 79.5487 57.6744 78.9052 58.0001C78.2246 58.3221 77.4776 58.4789 76.725 58.4579C76.3112 58.462 75.8998 58.3937 75.5095 58.2562C75.1417 58.1405 74.7995 57.9555 74.5011 57.7112C74.207 57.4512 73.9743 57.1292 73.8198 56.7682C73.635 56.363 73.5419 55.9219 73.5473 55.4765ZM76.8176 54.9314C76.8069 55.0813 76.8319 55.2317 76.8906 55.37C76.9494 55.5084 77.0402 55.6308 77.1556 55.7272C77.4114 55.9126 77.723 56.0049 78.0385 55.9888C78.5501 56.0052 79.0592 55.9123 79.532 55.7163C79.9153 55.5567 80.2635 55.3234 80.5567 55.0295V52.9583C79.5686 53.0085 78.5984 53.2413 77.6952 53.6451C77.4412 53.7438 77.2209 53.9134 77.0605 54.1337C76.9001 54.354 76.8063 54.6158 76.7904 54.8878L76.8176 54.9314Z" fill="#231F20"></path>
  <path d="M86.3125 58.2998V47.257H89.6482V49.0503C89.8111 48.8036 89.9934 48.5704 90.1933 48.3526C90.4211 48.1064 90.6793 47.8903 90.9618 47.7094C91.2856 47.502 91.6357 47.3389 92.0028 47.2243C92.4468 47.0928 92.9079 47.0285 93.3709 47.0335H93.4799L93.4309 49.9169C93.2993 49.8942 93.1664 49.8797 93.033 49.8733H92.5643C91.9563 49.8565 91.3563 50.0155 90.8364 50.3311C90.3728 50.6215 89.9634 50.9904 89.6264 51.4212V58.3434L86.3125 58.2998Z" fill="#231F20"></path>
  <path d="M94.3906 49.6828V47.2573H96.2111V43.4746H99.5468V47.2573H102.359V49.6828H99.5468V54.4575C99.4998 54.8886 99.6102 55.3222 99.8575 55.6784C100.028 55.8124 100.223 55.9113 100.431 55.9693C100.64 56.0273 100.858 56.0433 101.073 56.0163C101.279 56.0163 101.484 56.0054 101.689 55.9836C101.856 55.9731 102.021 55.9401 102.179 55.8855V58.2783C102.065 58.2783 101.945 58.3165 101.825 58.3274C101.705 58.3383 101.465 58.3655 101.253 58.3819L100.588 58.42H99.9829C99.3147 58.4377 98.6472 58.3644 97.9989 58.202C97.5671 58.0987 97.1715 57.8802 96.8543 57.5697C96.5927 57.2873 96.4136 56.9385 96.3365 56.5614C96.2483 56.1034 96.2063 55.6378 96.2111 55.1715V49.6828H94.3906Z" fill="#231F20"></path>
  <path d="M104.344 58.3002V47.2574H107.685V48.9797C107.867 48.7547 108.066 48.5434 108.279 48.3475C108.53 48.1067 108.808 47.8963 109.108 47.7207C109.451 47.5195 109.817 47.3603 110.198 47.2465C110.625 47.1167 111.07 47.0542 111.517 47.0611C111.956 47.0543 112.394 47.1168 112.814 47.2465C113.197 47.3535 113.553 47.5433 113.855 47.8024C114.15 48.0773 114.378 48.4168 114.52 48.7944C114.689 49.2605 114.771 49.7539 114.76 50.2497V58.3002H111.424V51.2853C111.453 50.8846 111.347 50.4858 111.124 50.1516C110.998 50.0127 110.841 49.9054 110.666 49.8382C110.491 49.7709 110.302 49.7458 110.116 49.7646C109.68 49.7646 109.251 49.8733 108.868 50.0808C108.457 50.2998 108.073 50.565 107.723 50.8711V58.3002H104.344Z" fill="#231F20"></path>
  <path d="M116.492 52.7892C116.459 51.8507 116.646 50.9175 117.038 50.0639C117.364 49.3826 117.833 48.7787 118.411 48.2925C118.944 47.8586 119.554 47.5294 120.21 47.3223C120.798 47.1306 121.412 47.0295 122.03 47.0225C122.624 47.0286 123.214 47.1147 123.785 47.2787C124.398 47.4585 124.958 47.7818 125.42 48.2216C125.96 48.7477 126.373 49.3886 126.631 50.0966C126.978 51.083 127.139 52.1255 127.105 53.1708V53.6668H119.796C119.801 54.0229 119.877 54.3744 120.019 54.7009C120.161 55.0274 120.367 55.3225 120.624 55.569C121.123 55.9514 121.741 56.1445 122.368 56.1141C123.006 56.1194 123.637 55.9835 124.216 55.7162C124.734 55.4884 125.215 55.1853 125.644 54.8168L126.936 56.8281C125.606 57.9791 123.892 58.588 122.134 58.5341C121.423 58.5336 120.717 58.4308 120.035 58.2289C119.374 58.0327 118.762 57.7003 118.237 57.2532C117.686 56.7679 117.255 56.1616 116.978 55.4818C116.635 54.6264 116.47 53.7103 116.492 52.7892ZM119.839 51.6991H124.123C123.965 50.1838 123.257 49.4371 122.03 49.4371C121.517 49.4379 121.022 49.6326 120.646 49.9822C120.192 50.4532 119.911 51.0643 119.85 51.7155L119.839 51.6991Z" fill="#231F20"></path>
  <path d="M129.004 58.2996V47.2568H132.34V49.05C132.517 48.7986 132.715 48.5633 132.934 48.3469C133.162 48.1007 133.42 47.8846 133.702 47.7037C134.024 47.4964 134.373 47.3333 134.738 47.2186C135.183 47.0848 135.647 47.0205 136.111 47.0279H136.22L136.171 49.9112C136.038 49.8884 135.903 49.8738 135.768 49.8676H135.299C134.693 49.851 134.095 50.01 133.577 50.3255C133.113 50.6158 132.704 50.9847 132.367 51.4156V58.3378L129.004 58.2996Z" fill="#231F20"></path>
  <path d="M150.048 52.8605C150.036 52.0127 150.141 51.1672 150.359 50.3478C150.539 49.6902 150.838 49.0712 151.242 48.5219C151.6 48.0549 152.066 47.681 152.599 47.4318C153.143 47.1773 153.737 47.0488 154.338 47.0557C155.005 47.0387 155.668 47.1767 156.273 47.459C156.835 47.7382 157.32 48.152 157.685 48.6636V42.9678H161.026V55.6076C161.026 56.2726 161.048 56.8176 161.091 57.2427C161.123 57.6073 161.213 57.9644 161.358 58.3002H157.941C157.891 58.2095 157.854 58.1123 157.832 58.0113C157.804 57.8859 157.777 57.7442 157.755 57.5861C157.734 57.4281 157.717 57.2646 157.706 57.101C157.695 56.9375 157.706 56.7958 157.706 56.6432C157.345 57.1501 156.892 57.5847 156.371 57.9241C155.761 58.3061 155.051 58.496 154.332 58.4691C153.742 58.476 153.158 58.359 152.616 58.1257C152.092 57.8978 151.631 57.5484 151.269 57.1065C150.865 56.5893 150.568 55.9962 150.397 55.3623C150.161 54.5494 150.044 53.7069 150.048 52.8605ZM153.389 52.8605C153.361 53.6502 153.549 54.4326 153.935 55.1225C154.101 55.4031 154.342 55.632 154.63 55.784C154.919 55.9361 155.244 56.0052 155.57 55.9837C155.99 55.9896 156.402 55.8741 156.758 55.6512C157.095 55.4335 157.406 55.1774 157.685 54.8881V50.8002C157.384 50.4894 157.037 50.2281 156.654 50.0262C156.295 49.8513 155.899 49.7653 155.499 49.7755C154.093 49.7755 153.389 50.7966 153.389 52.8387V52.8605Z" fill="#0FAAFF"></path>
  <path d="M161.441 59.957C161.432 59.7045 161.476 59.453 161.57 59.2185C161.664 58.9839 161.806 58.7714 161.986 58.5943C162.363 58.2226 162.812 57.9314 163.305 57.7386C163.071 57.6063 162.877 57.4135 162.744 57.1804C162.611 56.9473 162.543 56.6826 162.547 56.4141C162.549 55.9485 162.72 55.4994 163.027 55.1496C163.35 54.7554 163.737 54.4183 164.171 54.1521C163.6 53.8299 163.129 53.3566 162.809 52.784C162.505 52.2238 162.349 51.5953 162.356 50.9581C162.352 50.4263 162.464 49.8999 162.683 49.4156C162.9 48.9313 163.229 48.5053 163.643 48.1729C164.103 47.8017 164.628 47.5189 165.191 47.3389C166.591 46.9248 168.08 46.9248 169.48 47.3389C170.05 47.5259 170.575 47.8283 171.023 48.2274C171.427 47.8887 171.886 47.6214 172.38 47.4371C172.852 47.2406 173.353 47.121 173.863 47.0828V49.5791C173.602 49.5752 173.342 49.5898 173.083 49.6227C172.714 49.6604 172.349 49.7316 171.993 49.8353C172.14 50.1797 172.212 50.5511 172.206 50.9254C172.211 51.4674 172.102 52.0044 171.884 52.5006C171.662 52.9818 171.338 53.4093 170.936 53.7542C170.483 54.1302 169.961 54.4136 169.399 54.5882C168.721 54.7993 168.015 54.9005 167.305 54.888C167.003 54.8879 166.701 54.8716 166.401 54.8389C166.135 54.8117 165.871 54.768 165.61 54.7081C165.517 54.787 165.431 54.8746 165.354 54.9697C165.29 55.0522 165.255 55.154 165.256 55.2586C165.251 55.3515 165.28 55.4431 165.339 55.5156C165.397 55.5881 165.48 55.6363 165.572 55.651C165.87 55.7269 166.175 55.7708 166.482 55.7819L168.118 55.8909C170.009 55.9563 171.388 56.2397 172.206 56.7302C172.513 56.9247 172.778 57.1795 172.984 57.4794C173.19 57.7792 173.333 58.1177 173.404 58.4745C173.476 58.8312 173.474 59.1988 173.399 59.5548C173.324 59.9108 173.178 60.2479 172.969 60.5456C172.611 60.9923 172.154 61.3489 171.633 61.5867C170.996 61.8853 170.321 62.0944 169.627 62.2081C168.787 62.3505 167.935 62.4198 167.082 62.4152C166.171 62.427 165.26 62.3705 164.357 62.2462C163.75 62.1731 163.158 62.0076 162.602 61.7557C162.216 61.5891 161.887 61.3146 161.653 60.9653C161.494 60.654 161.421 60.306 161.441 59.957ZM164.548 59.352C164.54 59.5858 164.605 59.8164 164.733 60.0117C164.862 60.207 165.049 60.3574 165.267 60.4421C166.731 60.8878 168.292 60.901 169.764 60.4802C170.309 60.2786 170.565 60.0006 170.565 59.6408C170.568 59.4862 170.534 59.3331 170.467 59.1939C170.374 59.0417 170.232 58.9262 170.063 58.8669C169.779 58.7535 169.48 58.6801 169.175 58.6488C168.788 58.5943 168.27 58.5507 167.627 58.518L165.888 58.4363L165.163 58.3763C164.986 58.4732 164.837 58.6137 164.729 58.7844C164.621 58.9551 164.559 59.1504 164.548 59.352ZM165.474 51.0726C165.458 51.5942 165.632 52.104 165.965 52.5061C166.342 52.8727 166.847 53.0777 167.374 53.0777C167.9 53.0777 168.405 52.8727 168.783 52.5061C169.106 52.1 169.275 51.5916 169.257 51.0726C169.273 50.5686 169.105 50.076 168.783 49.6881C168.395 49.3377 167.891 49.1436 167.368 49.1436C166.846 49.1436 166.341 49.3377 165.954 49.6881C165.627 50.074 165.456 50.5675 165.474 51.0726Z" fill="#0FAAFF"></path>
  <path d="M173.777 52.7894C173.746 51.8512 173.933 50.9185 174.322 50.0641C174.634 49.4149 175.078 48.8374 175.625 48.3684C176.172 47.8993 176.81 47.5487 177.499 47.3389C178.087 47.1471 178.701 47.046 179.32 47.0391C179.914 47.0451 180.504 47.1313 181.075 47.2953C181.688 47.4739 182.249 47.7973 182.71 48.2382C183.249 48.7643 183.663 49.4052 183.92 50.1132C184.268 51.0996 184.429 52.142 184.394 53.1873V53.6833H177.08C177.053 54.3128 177.278 54.9271 177.704 55.3911C178.13 55.8552 178.723 56.131 179.353 56.1579C179.451 56.1633 179.549 56.1633 179.647 56.1579C180.286 56.1627 180.919 56.0269 181.5 55.76C182.017 55.5334 182.496 55.2303 182.923 54.8606L184.209 56.8392C182.877 57.9874 181.165 58.5959 179.407 58.5452C178.697 58.5447 177.99 58.4419 177.309 58.24C176.645 58.0455 176.03 57.713 175.504 57.2643C174.954 56.779 174.523 56.1727 174.245 55.4929C173.905 54.6334 173.746 53.7132 173.777 52.7894ZM177.123 51.6993H181.44C181.258 50.1877 180.544 49.4337 179.298 49.4373C178.786 49.4384 178.293 49.6331 177.919 49.9824C177.465 50.4534 177.185 51.0645 177.123 51.7157V51.6993Z" fill="#0FAAFF"></path>
</svg>
