<?xml version="1.0" encoding="UTF-8"?>
<svg xmlns="http://www.w3.org/2000/svg" width="154" height="105" viewBox="0 0 154 105" fill="none">
  <path d="M20.0234 33.2041H58.7154V71.8961H20.0234V33.2041ZM54.6915 67.8722V37.2281H24.0474V67.8722H54.6915ZM27.5297 43.1867V54.8716C27.5297 60.2111 30.4703 63.3839 35.4229 63.3839C40.5302 63.3839 43.4708 60.2111 43.4708 54.8716V43.1867H39.4468V54.8716C39.4468 57.8896 38.1313 59.5921 35.5002 59.5921C32.7144 59.5921 31.4763 57.8122 31.4763 54.8716V43.1867H27.5297ZM48.6555 45.5856C50.0484 45.5856 51.1318 44.5796 51.1318 43.1867C51.1318 41.7164 50.1258 40.7104 48.6555 40.7104C47.2626 40.7104 46.1792 41.7164 46.1792 43.1867C46.1792 44.5796 47.2626 45.5856 48.6555 45.5856ZM46.6435 47.4428V63.1517H50.6675V47.4428H46.6435ZM70.6326 56.7289C74.9661 56.7289 77.8293 54.1752 77.8293 49.9191C77.8293 45.8177 75.0435 43.1867 70.6326 43.1867H63.049V63.2291H67.0729V56.8062H70.6326V56.7289ZM70.1683 53.5561H66.9955V46.4368H70.1683C72.4898 46.4368 73.7279 47.7523 73.7279 49.9191C73.7279 52.2406 72.4898 53.5561 70.1683 53.5561ZM79.1448 55.3359C79.1448 60.0564 82.1628 63.3839 86.4189 63.3839C88.9726 63.3839 90.5977 62.4553 91.5263 60.985V63.2291H95.5502V47.4428H91.5263V49.9191C90.5203 48.294 88.8952 47.288 86.4189 47.288C82.0854 47.288 79.1448 50.6929 79.1448 55.3359ZM91.5263 55.3359C91.5263 58.0444 89.8238 59.8242 87.3475 59.8242C84.6391 59.8242 83.2462 57.8896 83.2462 55.3359C83.2462 52.5501 84.7939 50.7703 87.3475 50.7703C89.9012 50.7703 91.5263 52.6275 91.5263 55.3359ZM105.61 59.7468C104.062 59.7468 103.675 59.0504 103.675 57.6575V50.8477H107.158V47.4428H103.675V43.1093H99.6516V47.4428H97.7944V50.8477H99.6516V57.6575C99.6516 61.3719 101.276 63.1517 105.146 63.1517H107.235V59.7468H105.61ZM113.426 49.6869V42.2581H109.402V63.2291H113.426V54.8716C113.426 52.1632 114.819 50.5381 117.217 50.5381C119.539 50.5381 120.777 52.0858 120.777 54.4847V63.1517H124.801V54.0978C124.801 49.9965 121.86 47.288 118.146 47.288C115.825 47.288 114.354 48.1392 113.426 49.6869ZM124.492 42.1807V42.7997H125.807V46.8237H126.581V42.7997H127.819V42.1807H124.492ZM132.849 42.1807L131.224 45.8951L129.676 42.1807H128.748V46.8237H129.444V43.264L130.992 46.8237H131.533L133.004 43.264V46.8237H133.7V42.1807H132.849Z" fill="#FA4616"></path>
</svg>
